<?xml version="1.0" encoding="utf-8"?>
<!-- Generator: Adobe Illustrator 16.0.0, SVG Export Plug-In . SVG Version: 6.00 Build 0)  -->
<!DOCTYPE svg PUBLIC "-//W3C//DTD SVG 1.1 Tiny//EN" "http://www.w3.org/Graphics/SVG/1.1/DTD/svg11-tiny.dtd">
<svg version="1.1" baseProfile="tiny" id="Layer_1" xmlns="http://www.w3.org/2000/svg" xmlns:xlink="http://www.w3.org/1999/xlink"
	 x="0px" y="0px" width="24px" height="24px" viewBox="0 0 24 24" xml:space="preserve">
<g>
	<path d="M15.781,8.85H12.4V5.469c0-0.221-0.18-0.4-0.4-0.4s-0.4,0.179-0.4,0.4V8.85H8.219c-0.221,0-0.4,0.179-0.4,0.4
		s0.18,0.4,0.4,0.4H11.6v3.381c0,0.221,0.18,0.4,0.4,0.4s0.4-0.179,0.4-0.4V9.65h3.381c0.221,0,0.4-0.179,0.4-0.4
		S16.002,8.85,15.781,8.85z"/>
	<path d="M12,0.6c-4.77,0-8.65,3.88-8.65,8.65c0,4.655,8.012,13.637,8.353,14.017C11.778,23.352,11.887,23.4,12,23.4
		s0.222-0.048,0.298-0.133c0.341-0.38,8.353-9.362,8.353-14.017C20.65,4.48,16.77,0.6,12,0.6z M12,22.394
		C10.532,20.702,4.15,13.12,4.15,9.25C4.15,4.921,7.672,1.4,12,1.4s7.85,3.521,7.85,7.85C19.85,13.12,13.468,20.702,12,22.394z"/>
	<path d="M12,3.35c-3.253,0-5.9,2.646-5.9,5.9s2.647,5.9,5.9,5.9s5.9-2.646,5.9-5.9S15.253,3.35,12,3.35z M12,14.35
		c-2.813,0-5.1-2.288-5.1-5.1s2.287-5.1,5.1-5.1s5.1,2.288,5.1,5.1S14.813,14.35,12,14.35z"/>
</g>
</svg>
