<?xml version="1.0" encoding="UTF-8" standalone="no"?>
<!-- Generator: Adobe Illustrator 18.1.1, SVG Export Plug-In . SVG Version: 6.00 Build 0)  -->

<svg
   xmlns:dc="http://purl.org/dc/elements/1.1/"
   xmlns:cc="http://creativecommons.org/ns#"
   xmlns:rdf="http://www.w3.org/1999/02/22-rdf-syntax-ns#"
   xmlns:svg="http://www.w3.org/2000/svg"
   xmlns="http://www.w3.org/2000/svg"
   xmlns:sodipodi="http://sodipodi.sourceforge.net/DTD/sodipodi-0.dtd"
   xmlns:inkscape="http://www.inkscape.org/namespaces/inkscape"
   version="1.1"
   id="Capa_1"
   x="0px"
   y="0px"
   viewBox="0 0 204.993 204.993"
   style="enable-background:new 0 0 204.993 204.993;"
   xml:space="preserve"
   inkscape:version="0.91 r13725"
   sodipodi:docname="cogInitial.svg"><metadata
     id="metadata49"><rdf:RDF><cc:Work
         rdf:about=""><dc:format>image/svg+xml</dc:format><dc:type
           rdf:resource="http://purl.org/dc/dcmitype/StillImage" /><dc:title></dc:title></cc:Work></rdf:RDF></metadata><defs
     id="defs47" /><sodipodi:namedview
     pagecolor="#ffffff"
     bordercolor="#666666"
     borderopacity="1"
     objecttolerance="10"
     gridtolerance="10"
     guidetolerance="10"
     inkscape:pageopacity="0"
     inkscape:pageshadow="2"
     inkscape:window-width="1280"
     inkscape:window-height="684"
     id="namedview45"
     showgrid="false"
     inkscape:zoom="0.41799165"
     inkscape:cx="-483.38608"
     inkscape:cy="299.18615"
     inkscape:window-x="0"
     inkscape:window-y="0"
     inkscape:window-maximized="0"
     inkscape:current-layer="Capa_1" /><path
     style="opacity:1;fill:#ffffff;fill-opacity:1;stroke:none;stroke-width:2.46700001;stroke-linecap:butt;stroke-linejoin:miter;stroke-miterlimit:4;stroke-dasharray:none;stroke-dashoffset:0;stroke-opacity:1"
     d="m 259.47419,236.61808 -28.15707,28.15216 -14.07484,-14.0773 -9.38406,9.38405 23.4589,23.46135 37.5411,-37.53621 z"
     id="circle4362"
     inkscape:connector-curvature="0"
     sodipodi:nodetypes="ccccccc" /><g
     id="g15" /><g
     id="g17" /><g
     id="g19" /><g
     id="g21" /><g
     id="g23" /><g
     id="g25" /><g
     id="g27" /><g
     id="g29" /><g
     id="g31" /><g
     id="g33" /><g
     id="g35" /><g
     id="g37" /><g
     id="g39" /><g
     id="g41" /><g
     id="g43" /><g
     id="g4658"
     transform="matrix(0.55434107,0,0,0.55434107,388.34513,-379.65162)" /><g
     id="g4660"
     transform="matrix(0.55434107,0,0,0.55434107,388.34513,-379.65162)" /><g
     id="g4662"
     transform="matrix(0.55434107,0,0,0.55434107,388.34513,-379.65162)" /><g
     id="g4664"
     transform="matrix(0.55434107,0,0,0.55434107,388.34513,-379.65162)" /><g
     id="g4666"
     transform="matrix(0.55434107,0,0,0.55434107,388.34513,-379.65162)" /><g
     id="g4668"
     transform="matrix(0.55434107,0,0,0.55434107,388.34513,-379.65162)" /><g
     id="g4670"
     transform="matrix(0.55434107,0,0,0.55434107,388.34513,-379.65162)" /><g
     id="g4672"
     transform="matrix(0.55434107,0,0,0.55434107,388.34513,-379.65162)" /><g
     id="g4674"
     transform="matrix(0.55434107,0,0,0.55434107,388.34513,-379.65162)" /><g
     id="g4676"
     transform="matrix(0.55434107,0,0,0.55434107,388.34513,-379.65162)" /><g
     id="g4678"
     transform="matrix(0.55434107,0,0,0.55434107,388.34513,-379.65162)" /><g
     id="g4680"
     transform="matrix(0.55434107,0,0,0.55434107,388.34513,-379.65162)" /><g
     id="g4682"
     transform="matrix(0.55434107,0,0,0.55434107,388.34513,-379.65162)" /><g
     id="g4684"
     transform="matrix(0.55434107,0,0,0.55434107,388.34513,-379.65162)" /><g
     id="g4686"
     transform="matrix(0.55434107,0,0,0.55434107,388.34513,-379.65162)" /><g
     id="g4262"><g
       id="g4255"><g
         id="g4832"
         transform="translate(315.70262,53.720166)"><g
           id="g4829"><path
             style="color:#000000;font-style:normal;font-variant:normal;font-weight:normal;font-stretch:normal;font-size:medium;line-height:normal;font-family:sans-serif;text-indent:0;text-align:start;text-decoration:none;text-decoration-line:none;text-decoration-style:solid;text-decoration-color:#000000;letter-spacing:normal;word-spacing:normal;text-transform:none;direction:ltr;block-progression:tb;writing-mode:lr-tb;baseline-shift:baseline;text-anchor:start;white-space:normal;clip-rule:nonzero;display:inline;overflow:visible;visibility:visible;opacity:1;isolation:auto;mix-blend-mode:normal;color-interpolation:sRGB;color-interpolation-filters:linearRGB;solid-color:#000000;solid-opacity:1;fill:#000000;fill-opacity:1;fill-rule:nonzero;stroke:none;stroke-width:8.52000046;stroke-linecap:butt;stroke-linejoin:miter;stroke-miterlimit:3.79999995;stroke-dasharray:none;stroke-dashoffset:0;stroke-opacity:1;color-rendering:auto;image-rendering:auto;shape-rendering:auto;text-rendering:auto;enable-background:accumulate"
             d="m -213.20759,-1.403953 c -29.27595,4e-4 -53.18,23.39332 -53.17969,52.23828 -3e-4,28.844956 23.90374,52.237883 53.17969,52.238283 29.27677,7.5e-4 53.18195,-23.392515 53.18164,-52.238283 3.1e-4,-28.84578 -23.90487,-52.23903 -53.18164,-52.23828 z m 0,8.51953 c 24.76084,-6.4e-4 44.66237,19.5681 44.66211,43.71875 2.6e-4,24.150643 -19.90128,43.71938 -44.66211,43.718748 -24.76013,-3.41e-4 -44.66041,-19.568794 -44.66016,-43.718748 -2.6e-4,-24.14996 19.90003,-43.71841 44.66016,-43.71875 z"
             id="rect4818"
             inkscape:connector-curvature="0" /></g></g><g
         id="g4826"
         transform="translate(315.70262,53.720166)"><path
           sodipodi:nodetypes="ssccscccccsscccccccssccscccccsscccccccsccccccccccccccccccccccccccccccccccccccccccccccccc"
           inkscape:connector-curvature="0"
           id="path4610"
           d="m -201.99161,151.27283 -21.54801,0 c -3.242,0 -4.373,0.007 -15.421,-27.364 l -8.532,-3.468 c -23.248,10.547 -26,10.547 -26.92,10.547 l -1.779,0 -1.517,-1.303 -15.275,-14.945 c -2.323,-2.319 -3.128,-3.124 8.825,-30.137004 l -3.479,-8.231 c -28.065,-10.057 -28.065,-11.224 -28.065,-14.538 l 0,-21.126 c 0,-3.31 0,-4.355 27.972,-15.171 l 3.479,-8.249 c -12.644,-26.6019995 -11.774,-27.428 -9.28,-29.776 l 16.427,-16.105 2.04,-0.064 c 2.48,0 11.681,3.357 27.371,9.981 l 8.507,-3.454 c 10.242,-27.478 11.499,-27.474 14.73,-27.474 l 21.54801,0 c 3.228,0 4.363,0.004 15.411,27.382 l 8.546,3.443 c 23.212,-10.533 26,-10.533 26.927,-10.533 l 1.768,0 1.517,1.281 15.275,14.92 c 2.323,2.344 3.117,3.1460005 -8.836,30.17 l 3.489,8.278 c 28.101,10.014 28.101,11.177 28.101,14.498 l 0,21.101 c 0,3.232 0,4.37 -28.008,15.192 l -3.457,8.256 c 12.58,26.487004 11.749,27.317004 9.394,29.690004 l -16.552,16.205 -2.051,0.057 c -2.469,0 -11.649,-3.361 -27.317,-9.992 l -8.557,3.457 c -10.27,27.472 -11.437,27.472 -14.733,27.472 z m -19.30801,-8.722 16.99601,0 c 1.95,-3.976 6.166,-14.516 9.541,-23.595 l 0.68,-1.807 15.475,-6.249 1.664,0.705 c 9.223,3.933 20.124,8.292 24.372,9.631 l 11.943,-11.681 c -1.517,-4.205 -6.116,-14.494004 -10.264,-23.173004 l -0.837,-1.764 6.403,-15.285 1.743,-0.673 c 9.316,-3.586 20.11,-8.013 24.143,-10.032 l 0,-16.41 c -4.08,-1.918 -14.831,-6.009 -24.096,-9.294 l -1.814,-0.648 -6.445,-15.3 0.769,-1.725 c 3.965,-8.9469995 8.375,-19.5009995 9.788,-23.7529995 l -11.975,-11.7060005 c -3.865,1.349 -14.688,5.987 -23.817,10.153 l -1.7,0.7800005 -15.475,-6.2380005 -0.691,-1.721 c -3.658,-9.13 -8.203,-19.716 -10.253,-23.635 l -16.98401,0 c -1.961,3.965 -6.163,14.509 -9.53,23.585 l -0.669,1.797 -15.432,6.2700005 -1.664,-0.712 c -9.244,-3.9260005 -20.167,-8.2780005 -24.429,-9.6160005 l -11.922,11.6880005 c 1.496,4.198 6.109,14.48 10.243,23.1589995 l 0.848,1.768 -6.435,15.278 -1.732,0.669 c -9.301,3.582 -20.077,8.006 -24.111,10.017 l 0,16.431 c 4.08,1.925 14.82,6.027 24.079,9.326 l 1.8,0.655 6.446,15.249 -0.769,1.721 c -3.965,8.94 -8.371,19.480004 -9.788,23.724004 l 12,11.742 c 3.854,-1.36 14.663,-5.998 23.803,-10.168 l 1.711,-0.784 15.443,6.277 0.691,1.721 c 3.669,9.133 8.2,19.701 10.251,23.623 z"
           style="fill:#000000"
           clip-path="none"
           mask="none" /></g></g></g></svg>